#tb 0: 1/90000
#tb 1: 1/22050
0,          0,          0,        0,   230400, 0xfbf2581e
1,          0,          0,     1468,     5872, 0x00000000
1,       1468,       1468,     1468,     5872, 0x00000000
0,       6000,       6000,        0,   230400, 0xfbf2581e
1,       2936,       2936,     1468,     5872, 0x00000000
0,      12000,      12000,        0,   230400, 0xfbf2581e
1,       4404,       4404,     1468,     5872, 0x00000000
0,      18000,      18000,        0,   230400, 0xfbf2581e
1,       5872,       5872,     1468,     5872, 0x00000000
0,      24000,      24000,        0,   230400, 0xfbf2581e
1,       7340,       7340,     1468,     5872, 0x00000000
0,      30000,      30000,        0,   230400, 0xfbf2581e
1,       8808,       8808,     1468,     5872, 0x00000000
0,      36000,      36000,        0,   230400, 0xfbf2581e
1,      10276,      10276,     1468,     5872, 0x00000000
0,      42000,      42000,        0,   230400, 0xfbf2581e
1,      11744,      11744,     1468,     5872, 0x00000000
0,      48000,      48000,        0,   230400, 0xfbf2581e
1,      13212,      13212,     1468,     5872, 0x00000000
0,      54000,      54000,        0,   230400, 0xfbf2581e
1,      14680,      14680,     1468,     5872, 0x00000000
0,      60000,      60000,        0,   230400, 0xfbf2581e
1,      16148,      16148,     1468,     5872, 0x00000000
0,      66000,      66000,        0,   230400, 0xfbf2581e
1,      17616,      17616,     1468,     5872, 0x00000000
0,      72000,      72000,        0,   230400, 0xfbf2581e
1,      19084,      19084,     1468,     5872, 0x00000000
0,      78000,      78000,        0,   230400, 0xfbf2581e
1,      20552,      20552,     1468,     5872, 0x00000000
0,      84000,      84000,        0,   230400, 0xfbf2581e
1,      22020,      22020,     1468,     5872, 0xc6f64777
0,      90000,      90000,        0,   230400, 0xf5a0a21d
1,      23488,      23488,     1468,     5872, 0x7c9e60e8
0,      96000,      96000,        0,   230400, 0x909cc039
1,      24956,      24956,     1468,     5872, 0x46525c54
0,     102000,     102000,        0,   230400, 0x14d899dd
1,      26424,      26424,     1468,     5872, 0x842796bb
0,     108000,     108000,        0,   230400, 0x0d246edf
1,      27892,      27892,     1468,     5872, 0xb1f6cbd5
0,     114000,     114000,        0,   230400, 0x5345fe0d
1,      29360,      29360,     1468,     5872, 0x0261a74b
0,     120000,     120000,        0,   230400, 0x5abdff9a
1,      30828,      30828,     1468,     5872, 0x8218b1f9
0,     126000,     126000,        0,   230400, 0x1730d973
1,      32296,      32296,     1468,     5872, 0xd7a2cae6
0,     132000,     132000,        0,   230400, 0xec881be9
1,      33764,      33764,     1468,     5872, 0x69d34562
0,     138000,     138000,        0,   230400, 0xf4216895
1,      35232,      35232,     1468,     5872, 0x9303ec65
0,     144000,     144000,        0,   230400, 0x529d7a52
1,      36700,      36700,     1468,     5872, 0xd5d963a1
0,     150000,     150000,        0,   230400, 0x93b4c7b9
1,      38168,      38168,     1468,     5872, 0x0557e06f
0,     156000,     156000,        0,   230400, 0xedc65bcd
1,      39636,      39636,     1468,     5872, 0x1eb48b41
0,     162000,     162000,        0,   230400, 0xf0fb54ae
1,      41104,      41104,     1468,     5872, 0x70f5ca3f
0,     168000,     168000,        0,   230400, 0x27864ce9
1,      42572,      42572,     1468,     5872, 0xd39e5c5e
0,     174000,     174000,        0,   230400, 0xcd05012d
1,      44040,      44040,     1468,     5872, 0x29c59140
0,     180000,     180000,        0,   230400, 0x019b6d84
1,      45508,      45508,     1468,     5872, 0x7d95e643
0,     186000,     186000,        0,   230400, 0xcc05d416
1,      46976,      46976,     1468,     5872, 0x45353fd8
0,     192000,     192000,        0,   230400, 0xb04c0248
1,      48444,      48444,     1468,     5872, 0xad7b1b27
0,     198000,     198000,        0,   230400, 0x6806eb92
1,      49912,      49912,     1468,     5872, 0x1f0377b3
0,     204000,     204000,        0,   230400, 0x60e9c001
1,      51380,      51380,     1468,     5872, 0x6074541e
0,     210000,     210000,        0,   230400, 0x9b040261
1,      52848,      52848,     1468,     5872, 0xa4f5e892
0,     216000,     216000,        0,   230400, 0x6961fb90
1,      54316,      54316,     1468,     5872, 0x084bc696
0,     222000,     222000,        0,   230400, 0xbf67ad24
1,      55784,      55784,     1468,     5872, 0x67fdafce
0,     228000,     228000,        0,   230400, 0x2270f328
1,      57252,      57252,     1468,     5872, 0x8dfd249d
0,     234000,     234000,        0,   230400, 0xd0c345f6
1,      58720,      58720,     1468,     5872, 0x514184ee
0,     240000,     240000,        0,   230400, 0xfd159212
1,      60188,      60188,     1468,     5872, 0xc0090b0d
0,     246000,     246000,        0,   230400, 0x085578ff
1,      61656,      61656,     1468,     5872, 0xc1171cc8
0,     252000,     252000,        0,   230400, 0xcca8afa6
1,      63124,      63124,     1468,     5872, 0x7d7dd07e
0,     258000,     258000,        0,   230400, 0x901ec91c
1,      64592,      64592,     1468,     5872, 0xe6aa619c
0,     264000,     264000,        0,   230400, 0xf1cb99f3
1,      66060,      66060,     1468,     5872, 0xd5aac0df
0,     270000,     270000,        0,   230400, 0x86d98f0c
1,      67528,      67528,     1468,     5872, 0x3b68b390
0,     276000,     276000,        0,   230400, 0x52970700
